<?xml version="1.0" standalone="no"?>
<!DOCTYPE svg PUBLIC "-//W3C//DTD SVG 1.1//EN" "http://www.w3.org/Graphics/SVG/1.1/DTD/svg11.dtd" >
<svg>
<metadata>
Created by FontForge 20110222 at Mon Mar  7 08:31:10 2011
 By www-data
Star Wars Font
by Jose Gonzalez Pareja - 1998 - FREEWARE
Design Copyright by Lucasfilm
</metadata>
<defs>
<font id="STARWARS" horiz-adv-x="652" >
  <font-face 
    font-family="STARWARS"
    font-weight="400"
    font-stretch="normal"
    units-per-em="1000"
    panose-1="2 11 10 4 2 1 2 2 2 4"
    ascent="800"
    descent="-200"
    x-height="477"
    cap-height="659"
    bbox="-159 -243.1 1046 904"
    underline-thickness="62"
    underline-position="-97"
    unicode-range="U+0020-00FF"
  />
    <missing-glyph />
    <glyph glyph-name="space" unicode=" " horiz-adv-x="500" 
 />
    <glyph glyph-name="exclam" unicode="!" horiz-adv-x="258" 
d="M20 509v150h218v-150l-42 -302h-135zM28 0v162h202v-162h-202z" />
    <glyph glyph-name="quotedbl" unicode="&#x22;" horiz-adv-x="504" 
d="M20 574v109h204v-109l-32 -134h-138zM258 514v109h204v-109l-32 -134h-138z" />
    <glyph glyph-name="numbersign" unicode="#" 
d="M20 271h96l26 114h-122v124h150l36 162h142l-36 -162h109l36 162h142l-35 -162h68v-124h-96l-26 -114h122v-124h-149l-35 -158h-143l35 158h-109l-36 -158h-141l36 158h-70v124zM285 385l-27 -114h110l26 114h-109z" />
    <glyph glyph-name="dollar" unicode="$" horiz-adv-x="660" 
d="M618 504l-186 -26q-14 32 -25.5 44t-37.5 25v-129q77 -20 128 -39t76 -39q67 -55 67 -138q0 -51 -23 -90t-61.5 -65.5t-87 -41t-99.5 -16.5v-84h-72v84q-109 9 -183 55.5t-94 144.5l202 22q9 -45 24.5 -64.5t50.5 -34.5v158q-50 12 -95 26t-79 35.5t-54 55t-20 85.5
q0 80 62.5 134t185.5 60v44h72v-44q113 -7 172 -48.5t77 -113.5zM297 434v115q-32 -10 -45 -23.5t-13 -32.5t13.5 -34t44.5 -25zM369 250v-144q43 9 62.5 28.5t19.5 43.5q0 22 -16.5 39.5t-65.5 32.5z" />
    <glyph glyph-name="percent" unicode="%" horiz-adv-x="965" 
d="M221 -34l422 706h106l-424 -706h-104zM21 498q-1 36 12 67.5t38.5 55.5t62.5 37.5t85 13.5q92 0 145 -47.5t53 -126.5t-53 -126.5t-145 -47.5q-48 0 -85 13.5t-62.5 37t-38.5 55.5t-12 68zM161 497q0 -39 11.5 -68t46.5 -29q25 0 38 16q20 26 20 81q0 39 -11.5 68
t-46.5 29q-25 0 -38 -16q-20 -26 -20 -81zM549 141q-2 73 50.5 123.5t147.5 50.5q92 0 145 -47.5t53 -126.5t-53 -126t-145 -47q-95 0 -147.5 50t-50.5 123zM689 141q0 -41 11.5 -69t46.5 -28q25 0 38 16q20 25 20 81q0 39 -11.5 68t-46.5 29q-25 0 -38 -16q-20 -26 -20 -81
z" />
    <glyph glyph-name="ampersand" unicode="&#x26;" horiz-adv-x="832" 
d="M598 320l158 -31q-6 -20 -11.5 -35.5t-12 -29t-14.5 -26.5t-18 -29l76 -47q8 -4 17 -9.5t19 -10.5l-109 -113q-30 14 -62.5 33.5t-57.5 32.5q-26 -16 -53 -27.5t-53 -18.5q-37 -11 -79 -15.5t-88 -4.5q-56 0 -108.5 10.5t-93 32.5t-64.5 58t-24 87q0 56 42.5 106.5
t137.5 85.5q-40 43 -55 75t-15 65q0 71 59.5 116.5t180.5 45.5q124 0 182 -43.5t58 -104.5q0 -33 -12 -57.5t-33 -44t-48 -36t-57 -34.5q26 -24 54 -46.5t57 -42.5q16 30 27 58zM364 436q39 20 60.5 43t21.5 43q0 21 -18 35.5t-50 14.5q-31 0 -50.5 -16t-19.5 -39
q0 -28 56 -81zM291 276q-42 -26 -55.5 -45.5t-13.5 -39.5q0 -34 31.5 -59.5t81.5 -25.5q54 0 123 39q-33 22 -74.5 54.5t-92.5 76.5z" />
    <glyph glyph-name="quotesingle" unicode="'" horiz-adv-x="244" 
d="M20 551v109h204v-109l-32 -134h-138z" />
    <glyph glyph-name="parenleft" unicode="(" horiz-adv-x="342" 
d="M196 671h126q-32 -65 -56 -125.5t-38 -115.5q-24 -94 -24 -202q0 -205 118 -423h-126q-44 56 -77 107t-55 102.5t-33 106t-11 118.5q0 114 41.5 216.5t134.5 215.5z" />
    <glyph glyph-name="parenright" unicode=")" horiz-adv-x="342" 
d="M146 671h-126q67 -133 94 -241q24 -94 24 -202q0 -103 -29 -208.5t-89 -214.5h126q44 56 77 107t55 102.5t33 106t11 118.5q0 114 -41.5 216.5t-134.5 215.5z" />
    <glyph glyph-name="asterisk" unicode="*" horiz-adv-x="428" 
d="M168 603l-10 69h111l-9 -69q-3 -25 -12 -56q19 9 32.5 16t23.5 11l70 29l34 -95l-76 -15q-10 -1 -26 -2t-37 -2q29 -22 45 -36l52 -51l-90 -61l-38 61q-4 7 -10.5 19.5t-15.5 31.5q-9 -21 -15.5 -33.5t-10.5 -17.5l-37 -61l-93 61l56 51q12 11 24 20t22 16q-11 1 -26 3
t-34 5l-78 11l36 95l70 -29q5 -2 19 -8.5t35 -18.5q-4 19 -7 33t-5 23z" />
    <glyph glyph-name="plus" unicode="+" horiz-adv-x="585" 
d="M20 256v146h191v174h161v-174h193v-146h-193v-172h-161v172h-191z" />
    <glyph glyph-name="comma" unicode="," horiz-adv-x="258" 
d="M20 0v182h218v-152q0 -41 -9 -73t-29.5 -57.5t-53 -46t-78.5 -39.5l-48 80q58 25 80 49t24 57h-104z" />
    <glyph glyph-name="hyphen" unicode="-" horiz-adv-x="336" 
d="M20 169v142h296v-142h-296z" />
    <glyph glyph-name="period" unicode="." horiz-adv-x="258" 
d="M20 0v184h218v-184h-218z" />
    <glyph glyph-name="slash" unicode="/" horiz-adv-x="328" 
d="M20 -11l184 682h104l-184 -682h-104z" />
    <glyph glyph-name="zero" unicode="0" horiz-adv-x="639" 
d="M20 333q0 81 14 144t48.5 106t93.5 65.5t148 22.5q106 0 177.5 -45.5t96.5 -137.5q21 -74 21 -153t-12.5 -143t-45.5 -109t-91.5 -69.5t-150.5 -24.5t-149 26.5t-94 77.5q-26 37 -41 100t-15 140zM222 332q0 -36 1.5 -75t10.5 -71t28.5 -52.5t55.5 -20.5q39 0 59 22
t29 54.5t9.5 70t0.5 67.5q0 39 -1 78.5t-10 71.5t-29 52t-58 20t-57.5 -20t-28 -51.5t-9.5 -70t-1 -75.5z" />
    <glyph glyph-name="one" unicode="1" horiz-adv-x="350" 
d="M159 659h171v-659h-206v439h-102q0 81 29 135.5t108 84.5z" />
    <glyph glyph-name="two" unicode="2" horiz-adv-x="651" 
d="M631 160v-160h-611q-1 56 13.5 99.5t44.5 81t74 72t102 73.5q30 20 56.5 36t46.5 33t31.5 35.5t11.5 42.5q0 30 -29 51.5t-67 21.5h-230v126h257q55 0 108 -9t94.5 -31t67 -59.5t25.5 -93.5q0 -30 -9 -58.5t-30 -56.5t-56 -58t-87 -63q-28 -17 -46 -29.5t-31 -22.5
t-21.5 -17.5t-16.5 -15.5z" />
    <glyph glyph-name="three" unicode="3" horiz-adv-x="646" 
d="M61 535v136h255q144 0 208 -48t64 -121q0 -87 -104 -139q44 -9 64 -21q37 -20 57.5 -53.5t20.5 -79.5q0 -57 -24 -98.5t-65 -68.5t-94.5 -40t-112.5 -13h-310v171h303q41 0 69 10t28 55q0 47 -26 58.5t-71 11.5h-158v119h129q40 0 67 14t27 45q0 30 -21 46t-56 16h-250z
" />
    <glyph glyph-name="four" unicode="4" horiz-adv-x="681" 
d="M373 0v124h-353v150l369 379h199v-387h73v-142h-73v-124h-215zM195 266h178v177z" />
    <glyph glyph-name="five" unicode="5" horiz-adv-x="649" 
d="M52 329l-1 331h500v-133h-343v-85l174 1q52 0 97 -15t78.5 -43t52.5 -66.5t19 -86.5q0 -58 -23.5 -103.5t-64 -76.5t-95.5 -47t-118 -16h-300v168h251q65 0 105 20.5t40 62.5q0 48 -31 68.5t-96 20.5h-245z" />
    <glyph glyph-name="six" unicode="6" horiz-adv-x="644" 
d="M526 671l-3 -165h-195q-56 -4 -78 -20t-29 -65q42 19 77.5 22t86.5 1q52 -2 95.5 -20.5t75.5 -49t50 -71t18 -86.5q0 -50 -19 -92.5t-55 -73.5t-88.5 -47.5t-118.5 -14.5q-86 0 -147.5 24.5t-100.5 69t-57 106t-18 136.5q0 179 83.5 262.5t231.5 83.5h191zM215 222l2 -13
q2 -16 8.5 -30t20.5 -24.5t38 -16.5t61 -7q22 0 43 4.5t37.5 15t26.5 28t10 42.5q0 47 -37 64.5t-82 17.5q-58 0 -92.5 -24.5t-35.5 -56.5z" />
    <glyph glyph-name="seven" unicode="7" horiz-adv-x="634" 
d="M20 505v154h594v-123l-280 -536h-243l291 505h-362z" />
    <glyph glyph-name="eight" unicode="8" horiz-adv-x="639" 
d="M142 357q-19 12 -38.5 23.5t-31.5 25.5q-30 36 -30 89q0 83 87 135q68 41 179 41q147 0 217 -50.5t70 -127.5q0 -43 -23.5 -75t-70.5 -60q58 -18 88 -61t30 -105t-25.5 -101t-67.5 -62t-95 -31.5t-107 -8.5q-60 0 -115 8.5t-97 31.5t-67 63t-25 102q0 52 29.5 99t92.5 64
zM234 484q0 -34 23.5 -55t63.5 -21q35 0 57.5 20.5t22.5 53.5q0 34 -23.5 55.5t-59.5 21.5q-38 0 -61 -21t-23 -54zM223 199q0 -43 29.5 -70.5t67.5 -27.5q37 0 65.5 28t28.5 71q0 44 -29 72t-67 28t-66.5 -27t-28.5 -74z" />
    <glyph glyph-name="nine" unicode="9" horiz-adv-x="644" 
d="M82 -11v168h228q46 3 73 19t32 68q-33 -8 -55.5 -11t-41 -3.5t-37 1t-43.5 3.5q-106 8 -162 62t-56 146q0 51 19 94t55 74t88 49t118 18q112 1 176.5 -24.5t97.5 -71.5t41.5 -109.5t8.5 -138.5q0 -89 -14.5 -154t-50.5 -107t-97 -62.5t-154 -20.5h-226zM429 451v2
q-3 27 -14.5 43.5t-28.5 26t-38 12.5t-42 3q-20 0 -41 -3t-38.5 -12t-28.5 -25.5t-11 -44.5t9 -44t23.5 -24.5t33.5 -10.5t40 -2t45 2.5t44.5 10.5t33.5 23.5t13 42.5z" />
    <glyph glyph-name="colon" unicode=":" horiz-adv-x="258" 
d="M128 470q42 0 72.5 -25.5t30.5 -60.5t-30.5 -60t-72.5 -25t-72 25t-30 60t30 60.5t72 25.5zM128 175q41 0 71 -24.5t30 -59.5t-30 -59.5t-71 -24.5t-70.5 24.5t-29.5 59.5t29.5 59.5t70.5 24.5z" />
    <glyph glyph-name="FLW59" unicode=";" horiz-adv-x="259" 
d="M129 473q42 0 72.5 -25.5t30.5 -60.5t-30.5 -60t-72.5 -25t-72 25t-30 60t30 60.5t72 25.5zM129 178q41 0 71 -25t30 -59q0 -32 -12.5 -57.5t-29.5 -46t-35 -36t-31 -25.5h-47l13 83q-28 10 -43.5 33t-15.5 49q0 34 29.5 59t70.5 25z" />
    <glyph glyph-name="less" unicode="&#x3c;" horiz-adv-x="608" 
d="M588 208v-158l-568 212v134l568 212v-159l-346 -120z" />
    <glyph glyph-name="equal" unicode="=" horiz-adv-x="586" 
d="M20 367v146h546v-146h-546zM20 145v146h546v-146h-546z" />
    <glyph glyph-name="greater" unicode="&#x3e;" horiz-adv-x="608" 
d="M20 208v-158l568 212v134l-568 212v-159l346 -120z" />
    <glyph glyph-name="question" unicode="?" horiz-adv-x="593" 
d="M376 207h-190v17q0 39 9 65t26.5 47t44 41t62.5 47q40 30 40 55q0 24 -16 38t-49 14q-35 0 -58.5 -21.5t-30.5 -73.5l-194 21q10 97 78 156t208 59q55 0 98.5 -11t77.5 -31q91 -55 91 -147q0 -54 -32 -87.5t-87 -72.5q-22 -16 -37 -28t-24 -24t-13 -27t-4 -37zM180 0v162
h204v-162h-204z" />
    <glyph glyph-name="at" unicode="@" horiz-adv-x="803" 
d="M503 516h98l-62 -356q-1 -6 -1.5 -9.5t-0.5 -6.5q0 -17 20 -17q11 0 24 5t28 13q43 27 70.5 78.5t27.5 123.5q0 119 -75.5 188t-203.5 69q-77 0 -138.5 -26t-104.5 -71t-66 -104.5t-23 -126.5q0 -68 22.5 -125.5t64.5 -99.5t102 -65.5t136 -23.5q140 0 259 83h103
q-21 -21 -40.5 -38.5t-37.5 -29.5q-55 -37 -127 -59.5t-155 -22.5q-90 0 -164 30t-127 81.5t-82.5 121.5t-29.5 149q0 81 29 152.5t82.5 125.5t128.5 85t167 31q79 0 144.5 -24t112.5 -66.5t73 -101.5t26 -130q0 -85 -39 -155.5t-113 -111.5q-59 -31 -108 -31q-60 0 -77 53
q-34 -30 -61.5 -42t-59.5 -12q-66 0 -114 50t-48 143q0 42 13 92.5t39.5 94t67 73t94.5 29.5q35 0 62.5 -15t55.5 -51zM268 221q0 -40 17 -72.5t57 -32.5q38 0 62 30t37.5 71t18.5 84t5 69q0 44 -21 66.5t-50 22.5q-33 0 -58 -22q-18 -17 -31 -44t-21.5 -57.5t-12 -61
t-3.5 -53.5z" />
    <glyph glyph-name="A" unicode="A" horiz-adv-x="838" 
d="M575 0l-41 118h-239l-34 -118h-241l180 659h433l185 -659h-243zM334 261h172l-92 260z" />
    <glyph glyph-name="B" unicode="B" horiz-adv-x="717" 
d="M20 0v659h424q106 0 162.5 -47t56.5 -117q0 -59 -41 -100q-28 -29 -78 -44q79 -17 116 -59t37 -105q0 -52 -26.5 -92.5t-72.5 -64.5q-14 -7 -41.5 -12.5t-57 -9.5t-55 -6t-34.5 -2h-390zM248 525v-124h98q53 0 74 16t21 47q0 29 -20.5 45t-72.5 16h-100zM248 275v-133
h116q58 0 82 18t24 50q0 29 -24 47t-83 18h-115z" />
    <glyph glyph-name="C" unicode="C" horiz-adv-x="623" 
d="M603 141v-153h-201q-88 0 -159 22.5t-120.5 66t-76 107.5t-26.5 147q0 163 97 251.5t274 88.5h212v-153h-207q-45 -4 -71 -16t-47 -40q-30 -42 -30 -129q0 -84 31.5 -135t108.5 -57h215z" />
    <glyph glyph-name="D" unicode="D" horiz-adv-x="714" 
d="M20 0v659h336q85 0 148.5 -24t105.5 -67t63 -103t21 -133q0 -52 -9.5 -102.5t-33 -93t-62.5 -73.5t-97 -45q-75 -18 -136 -18h-336zM303 510h-57v-361h56q52 0 84 11t50 33t24.5 55.5t6.5 78.5q0 47 -7 81t-25 57t-50 34t-82 11z" />
    <glyph glyph-name="E" unicode="E" horiz-adv-x="737" 
d="M20 -6v666h608v-162h-380v-97h352v-146h-352v-97h469v-164h-697z" />
    <glyph glyph-name="F" unicode="F" horiz-adv-x="648" 
d="M20 -7v666h608v-162h-380v-97h352v-146h-352v-261h-228z" />
    <glyph glyph-name="G" unicode="G" horiz-adv-x="747" 
d="M727 347v-358l-325 1q-88 0 -159 22.5t-120.5 66t-76 107.5t-26.5 147q0 163 97 251.5t274 88.5h212v-153h-207q-45 -4 -71 -16t-47 -40q-30 -42 -30 -129q0 -84 31.5 -135t108.5 -57h149v70h-105v134h295z" />
    <glyph glyph-name="H" unicode="H" horiz-adv-x="780" 
d="M20 0v659h226v-231h248v231h335v-160h-107v-499h-228v266h-248v-266h-226z" />
    <glyph glyph-name="I" unicode="I" horiz-adv-x="267" 
d="M20 0v659h227v-659h-227z" />
    <glyph glyph-name="J" unicode="J" horiz-adv-x="533" 
d="M286 253v407h227v-359q0 -67 -13 -123.5t-45 -97t-87 -63.5t-139 -23h-209v161h194q38 0 55 19t17 79z" />
    <glyph glyph-name="K" unicode="K" horiz-adv-x="808" 
d="M20 0v659h226v-283l222 283h263l-273 -357q23 -44 52 -72t68.5 -44.5t93 -23t125.5 -7.5v-155h-200q-60 4 -107 20.5t-81 37t-56.5 40t-32.5 29.5l-74 92v-219h-226z" />
    <glyph glyph-name="L" unicode="L" horiz-adv-x="620" 
d="M20 0v659h227v-497h353v-162h-580z" />
    <glyph glyph-name="M" unicode="M" horiz-adv-x="865" 
d="M20 0v659h231l192 -340l171 340h231v-659h-231v312l-171 -312l-192 312v-312h-231z" />
    <glyph glyph-name="N" unicode="N" horiz-adv-x="782" 
d="M20 0v659h212l276 -364v364h330v-162h-116v-497h-214l-274 361v-361h-214z" />
    <glyph glyph-name="O" unicode="O" horiz-adv-x="800" 
d="M20 329q0 161 100 251.5t279 90.5q183 0 282 -88.5t99 -247.5q-1 -169 -95.5 -257.5t-276.5 -88.5q-88 0 -160 22.5t-122.5 65.5t-78 106.5t-27.5 145.5zM247 328q0 -100 41.5 -143.5t111.5 -43.5q74 0 114 43t40 153q0 93 -42 136t-114 43q-68 0 -109.5 -44t-41.5 -144z
" />
    <glyph glyph-name="P" unicode="P" horiz-adv-x="722" 
d="M265 1h-245v660h378q56 0 110.5 -11.5t97.5 -38.5t69 -72.5t26 -114.5q0 -61 -26 -101.5t-68.5 -64.5t-97 -33.5t-111.5 -9.5h-133v-214zM267 504v-131h91q91 0 126 15.5t35 55.5q0 13 -7 24t-25.5 19t-50 12.5t-80.5 4.5h-89z" />
    <glyph glyph-name="Q" unicode="Q" horiz-adv-x="828" 
d="M700 97q21 -13 35 -21.5t21 -12.5q19 -10 52 -23l-63 -114q-18 8 -40 19t-44 24t-41.5 26t-33.5 23q-73 -29 -188 -29q-166 0 -264 78q-114 93 -114 261q0 163 100 253.5t279 90.5q182 0 281.5 -89t99.5 -252q0 -146 -80 -234zM526 201q28 45 28 130q0 101 -41.5 143.5
t-114.5 42.5q-68 0 -109.5 -44t-41.5 -136q0 -108 41 -152t112 -44q26 0 44 5q-14 12 -36.5 23.5t-53.5 23.5l36 73q21 -3 35 -7.5t28 -11.5t30.5 -18t42.5 -28z" />
    <glyph glyph-name="R" unicode="R" horiz-adv-x="798" 
d="M265 0h-245v660h378q56 0 110.5 -11.5t97.5 -39t69.5 -72.5t25.5 -111q-1 -54 -10.5 -89.5t-24 -59t-32 -37.5t-32.5 -24l-28 -9q2 -7 2 -16.5t17 -17.5t59 -13.5t126 -5.5v-157h-207q-55 12 -97.5 34.5t-78.5 52t-67.5 63.5t-62.5 67v-214zM267 486v-131h91
q91 0 126 15.5t35 55.5q0 13 -7 24t-25.5 19t-50 12.5t-80.5 4.5h-89z" />
    <glyph glyph-name="S" unicode="S" horiz-adv-x="560" 
d="M-159 -6v159h333q20 6 29 11.5t0.5 30t-38.5 79.5t-89 160q-22 45 -23 86.5t18 72.5t58 49.5t99 18.5l369 1v-162h-245q-21 1 -24.5 -7.5t12.5 -37.5t52.5 -84.5t96.5 -147.5q20 -26 28.5 -65t-4 -75.5t-51.5 -62.5t-114 -26h-507z" />
    <glyph glyph-name="T" unicode="T" horiz-adv-x="732" 
d="M20 503v159h692v-159h-235v-503h-227v503h-230z" />
    <glyph glyph-name="U" unicode="U" horiz-adv-x="742" 
d="M496 304v356h226v-394q0 -99 -26 -155t-73 -83.5t-111 -33.5t-141 -6q-78 0 -143 6t-111 33.5t-71.5 83.5t-25.5 155v394h226v-353q0 -43 8.5 -67t25 -36t40 -14.5t53.5 -2.5q29 0 52 3.5t39 15.5t24 35t8 63z" />
    <glyph glyph-name="V" unicode="V" horiz-adv-x="838" 
d="M575 656l-156 -515l-158 515h-241l180 -659h433l185 659h-243z" />
    <glyph glyph-name="W" unicode="W" horiz-adv-x="1064" 
d="M204 0l-184 659h228l81 -302l67 302h268l76 -302l78 302h226l-172 -659h-258l-77 311l-70 -311h-263z" />
    <glyph glyph-name="X" unicode="X" horiz-adv-x="836" 
d="M272 343l-230 316h250l130 -202l126 202h247l-228 -319l249 -340h-254l-144 212l-146 -212h-252z" />
    <glyph glyph-name="Y" unicode="Y" horiz-adv-x="837" 
d="M305 276l-285 383h251l148 -222l148 222h250l-284 -383v-276h-228v276z" />
    <glyph glyph-name="Z" unicode="Z" horiz-adv-x="735" 
d="M20 509v151h695v-151l-392 -354h392v-155h-695v155l372 354h-372z" />
    <glyph glyph-name="bracketleft" unicode="[" horiz-adv-x="347" 
d="M20 -183v843h307v-142h-121v-559h121v-142h-307z" />
    <glyph glyph-name="backslash" unicode="\" horiz-adv-x="328" 
d="M308 -11l-184 682h-104l184 -682h104z" />
    <glyph glyph-name="bracketright" unicode="]" horiz-adv-x="346" 
d="M326 -183v843h-306v-142h120v-559h-120v-142h306z" />
    <glyph glyph-name="asciicircum" unicode="^" horiz-adv-x="588" 
d="M20 305l204 367h140l204 -367h-176l-97 221l-97 -221h-178z" />
    <glyph glyph-name="underscore" unicode="_" horiz-adv-x="564" 
d="M20 -115v45h524v-45h-524z" />
    <glyph glyph-name="grave" unicode="`" horiz-adv-x="296" 
d="M180 537l-160 134h174l82 -134h-96z" />
    <glyph glyph-name="a" unicode="a" 
d="M231 323l-195 18q11 47 32 73t60 45q28 13 77 21t106 8q91 0 146.5 -9t92.5 -38q26 -21 41 -57.5t15 -70.5v-212q0 -34 5 -53t21 -49h-191q-11 19 -14.5 28.5t-7.5 30.5q-20 -17 -39.5 -29.5t-39.5 -19.5q-27 -11 -58.5 -15.5t-67.5 -4.5q-95 0 -144.5 39t-49.5 97
q0 55 36 90q35 35 131 53q48 9 76 13.5t49 8.5t42 10t54 18q0 34 -15.5 47.5t-54.5 13.5q-52 0 -76 -14q-19 -11 -31 -42zM408 197v29q-21 -7 -43.5 -12.5t-44.5 -10.5q-49 -11 -72.5 -24.5t-23.5 -38.5q0 -22 17 -36t49 -14q54 0 86 30t32 77z" />
    <glyph glyph-name="b" unicode="b" horiz-adv-x="625" 
d="M20 0v660h206v-229q61 58 155 58q97 0 160.5 -63t63.5 -180q0 -60 -17 -108t-47 -81t-70.5 -50.5t-88.5 -17.5q-54 0 -92 18.5t-79 62.5v-70h-191zM224 240q0 -62 26 -89.5t66 -27.5q36 0 61 27.5t25 91.5q0 57 -25 83.5t-59 26.5q-41 0 -67.5 -28t-26.5 -84z" />
    <glyph glyph-name="c" unicode="c" horiz-adv-x="654" 
d="M441 187l193 -20q-27 -82 -93.5 -130t-196.5 -48q-68 0 -127 13.5t-103 43.5t-69 77t-25 113q0 74 28 123q20 36 56 64.5t73 42.5q59 22 152 22q131 0 199 -42t95 -123l-191 -22q-19 62 -97 62q-50 0 -81 -32.5t-31 -98.5q0 -59 31 -90t79 -31q82 0 108 76z" />
    <glyph glyph-name="d" unicode="d" horiz-adv-x="624" 
d="M399 660h205v-660h-190v70q-38 -43 -73 -60q-43 -21 -98 -21q-59 0 -101 22t-69 57.5t-40 81.5t-13 94q0 118 63 181.5t161 63.5q96 0 155 -58v229zM400 240q0 56 -26 84t-67 28q-35 0 -59 -26.5t-24 -89.5q0 -58 24.5 -85.5t61.5 -27.5q39 0 64.5 27.5t25.5 89.5z" />
    <glyph glyph-name="e" unicode="e" horiz-adv-x="655" 
d="M635 214v-21h-408q6 -43 27 -66q28 -30 76 -30q29 0 49.5 9t43.5 34l201 -16q-26 -41 -55.5 -67t-65 -41t-79 -21t-98.5 -6q-66 0 -122 15.5t-97 46.5t-64 77.5t-23 108.5q0 59 22.5 106t62 79t94.5 49t121 17q152 0 233.5 -68.5t81.5 -205.5zM228 280h200q-6 53 -32 76
t-68 23q-45 0 -70.5 -26.5t-29.5 -72.5z" />
    <glyph glyph-name="f" unicode="f" horiz-adv-x="460" 
d="M300 478h97v-134h-97v-344h-204v344h-76v134h76v22q0 86 45 129t144 43q27 0 65.5 -3.5t89.5 -8.5l-22 -111q-36 6 -59 6q-43 0 -51 -19.5t-8 -57.5z" />
    <glyph glyph-name="g" unicode="g" horiz-adv-x="626" 
d="M415 407v71h191v-472q0 -57 -25 -95.5t-66 -61.5t-93.5 -33t-107.5 -10q-58 0 -109 6t-88.5 23t-59.5 48.5t-22 81.5v11t1 14l198 -20q7 -29 29 -39t50 -10q44 0 65.5 21.5t21.5 73.5v72q-29 -31 -60 -46q-45 -22 -101 -22q-107 0 -172 83q-47 59 -47 157q0 112 60 170.5
t158 58.5q62 0 102 -19t75 -63zM224 247q0 -52 24 -77.5t64 -25.5q38 0 64 26t26 79q0 52 -27 80t-66 28t-62 -25.5t-23 -84.5z" />
    <glyph glyph-name="h" unicode="h" horiz-adv-x="601" 
d="M20 0v659h203v-243q41 39 82 55.5t97 16.5q83 0 131 -45t48 -139v-304h-205v262q0 46 -18 64.5t-52 18.5q-37 0 -60 -25.5t-23 -90.5v-229h-203z" />
    <glyph glyph-name="i" unicode="i" horiz-adv-x="243" 
d="M20 534v125h203v-125h-203zM20 0v477h203v-477h-203z" />
    <glyph glyph-name="j" unicode="j" horiz-adv-x="364" 
d="M140 534v126h204v-126h-204zM140 30v448h204v-464q0 -47 -6 -85.5t-25 -66t-54 -42.5t-93 -15q-56 0 -146 17l30 133q28 -5 36 -5q26 0 40 16t14 64z" />
    <glyph glyph-name="k" unicode="k" horiz-adv-x="661" 
d="M20 0v659h208v-340l152 158h250l-190 -167l201 -310h-229l-108 191l-76 -67v-124h-208z" />
    <glyph glyph-name="l" unicode="l" horiz-adv-x="244" 
d="M20 0v659h204v-659h-204z" />
    <glyph glyph-name="m" unicode="m" horiz-adv-x="941" 
d="M20 0v478h190v-69q41 43 82.5 61.5t100.5 18.5q64 0 101 -20t61 -60q24 23 45 38.5t42 24.5t44.5 13t52.5 4q85 0 133.5 -45.5t48.5 -142.5v-301h-204v272q0 32 -17.5 53t-47.5 21q-36 0 -58 -23.5t-22 -75.5v-247h-204v263q0 36 -13 59.5t-51 23.5q-35 0 -57.5 -23.5
t-22.5 -78.5v-244h-204z" />
    <glyph glyph-name="n" unicode="n" horiz-adv-x="601" 
d="M20 0v478h189v-78q43 48 86.5 68.5t105.5 20.5q85 0 132.5 -45.5t47.5 -139.5v-304h-205v263q0 45 -18 64t-52 19q-37 0 -60 -25.5t-23 -90.5v-230h-203z" />
    <glyph glyph-name="o" unicode="o" horiz-adv-x="650" 
d="M20 237q0 59 23.5 105.5t64 78.5t96.5 49.5t120 17.5q160 0 241 -83q65 -66 65 -165q0 -60 -23 -106.5t-64 -78.5t-97 -49t-122 -17q-127 0 -206 58q-98 74 -98 190zM224 237q0 -63 29 -93.5t73 -30.5t72 30t28 96q0 62 -28.5 92.5t-70.5 30.5q-44 0 -73.5 -30.5
t-29.5 -94.5z" />
    <glyph glyph-name="p" unicode="p" horiz-adv-x="625" 
d="M226 -182h-206v660h191v-71q19 23 38 38t35 23q22 10 46.5 15.5t51.5 5.5q58 0 100 -22t69.5 -57.5t40.5 -81.5t13 -94q0 -119 -63.5 -182t-160.5 -63q-92 0 -155 58v-229zM224 238q0 -57 27 -84.5t67 -27.5q35 0 59.5 26t24.5 89q0 59 -25 86.5t-61 27.5
q-39 0 -65.5 -28t-26.5 -89z" />
    <glyph glyph-name="q" unicode="q" horiz-adv-x="624" 
d="M604 478v-660h-205v229q-61 -58 -155 -58q-97 0 -160.5 63t-63.5 180q0 61 17 108.5t47 80.5t71 50.5t88 17.5q55 0 93.5 -18t77.5 -64v71h190zM400 238q0 61 -25.5 89t-64.5 28q-37 0 -61.5 -27.5t-24.5 -91.5q0 -58 24 -84t59 -26q41 0 67 27.5t26 84.5z" />
    <glyph glyph-name="r" unicode="r" horiz-adv-x="458" 
d="M20 0v478h190v-78q28 50 57 69.5t72 19.5q46 0 99 -25l-64 -131q-37 14 -56 14q-39 0 -62 -30q-32 -41 -32 -157v-160h-204z" />
    <glyph glyph-name="s" unicode="s" horiz-adv-x="604" 
d="M20 132l202 17q12 -32 34 -46t60 -14q31 0 56.5 10.5t25.5 34.5q0 25 -28 32.5t-83 16.5q-45 7 -88.5 15t-78.5 24t-56.5 43.5t-21.5 73.5q4 73 65.5 111t192.5 38q50 0 91 -4t74 -18t58 -39t43 -67l-193 -17q-8 26 -30.5 37.5t-52.5 11.5q-34 0 -50 -11t-16 -27
q0 -24 29 -31t78 -12q45 -5 90 -12.5t81 -24.5t59 -45.5t23 -74.5q0 -32 -15 -61.5t-48 -52.5t-86 -37t-129 -14q-56 0 -103.5 5t-84.5 20.5t-62 43.5t-36 74z" />
    <glyph glyph-name="t" unicode="t" horiz-adv-x="438" 
d="M95 565l204 95v-182h112v-134h-112v-169q0 -33 7 -41q9 -15 34 -15q12 0 27.5 2.5t36.5 8.5l14 -126q-38 -7 -73 -11t-67 -4q-55 0 -90.5 11.5t-56 34.5t-28.5 58t-8 83v168h-75v134h75v87z" />
    <glyph glyph-name="u" unicode="u" horiz-adv-x="601" 
d="M581 478v-478h-190v77q-43 -48 -86 -68t-106 -20q-84 0 -131.5 45.5t-47.5 139.5v304h204v-263q0 -45 18.5 -64t51.5 -19q37 0 60.5 25.5t23.5 90.5v230h203z" />
    <glyph glyph-name="v" unicode="v" horiz-adv-x="667" 
d="M241 -1l-221 478h212l103 -303l106 303h206l-226 -478h-180z" />
    <glyph glyph-name="w" unicode="w" horiz-adv-x="1006" 
d="M216 -1l-196 478h196l86 -301l108 301h184l112 -301l85 301h195l-195 -478h-181l-108 288l-104 -288h-182z" />
    <glyph glyph-name="x" unicode="x" horiz-adv-x="711" 
d="M212 250l-182 227h241l85 -133l98 133h224l-181 -227l194 -251h-237l-98 154l-116 -154h-220z" />
    <glyph glyph-name="y" unicode="y" horiz-adv-x="667" 
d="M244 0l-224 478h216l109 -318l101 318h201l-211 -511q-37 -88 -73 -119q-54 -43 -161 -43q-22 0 -56 3t-80 8l-16 128q22 -6 46.5 -9.5t51.5 -3.5q36 0 58 15t38 54z" />
    <glyph glyph-name="z" unicode="z" horiz-adv-x="570" 
d="M40 352v125h493v-107l-268 -245h285v-126h-530v119l254 234h-234z" />
    <glyph glyph-name="braceleft" unicode="{" horiz-adv-x="414" 
d="M327 671h67v-148h-23q-31 0 -46.5 -12t-22.5 -36q-3 -10 -4.5 -34t-3 -50.5t-4 -50.5t-6.5 -35q-11 -28 -29 -43q-13 -11 -46 -25q31 -12 49 -29t27 -38t11.5 -47.5t2.5 -58.5q0 -31 1.5 -52.5t10.5 -35t28.5 -19.5t54.5 -6v-146h-63q-59 0 -100 9t-66.5 31t-36.5 57.5
t-11 88.5v32q1 5 1 10v10q-1 38 -6.5 60t-16.5 34t-29.5 16t-45.5 7v155q32 0 51 8.5t29.5 23.5t13.5 37t3 49v16v20q0 79 14.5 115t40.5 55q21 16 53 22q23 5 48 7.5t54 2.5z" />
    <glyph glyph-name="bar" unicode="|" horiz-adv-x="168" 
d="M20 -182v841h128v-841h-128z" />
    <glyph glyph-name="braceright" unicode="}" horiz-adv-x="414" 
d="M86 671h-66v-148h22q31 0 47 -12t23 -36q3 -10 4.5 -34t3 -50.5t4 -50.5t6.5 -35q10 -27 28 -43q16 -13 46 -25q-31 -12 -49 -29t-27 -38t-11.5 -47.5t-2.5 -58.5q0 -31 -1.5 -52.5t-10.5 -35t-28 -19.5t-54 -6v-146h62q59 0 100 9t66.5 31t36.5 57.5t11 88.5v32v20
q1 38 6 60t16 34t29.5 16t46.5 7v155q-32 0 -51.5 8.5t-30 23.5t-13.5 37t-3 49v16v20q0 79 -14 115t-40 55q-28 19 -70.5 25.5t-85.5 6.5z" />
    <glyph glyph-name="asciitilde" unicode="~" horiz-adv-x="613" 
d="M593 437v-147q-58 -41 -93.5 -55t-73.5 -14q-26 0 -57.5 11.5t-64.5 24.5t-66 24.5t-60 11.5q-77 0 -158 -72v148q46 37 86.5 53t88.5 16q26 0 58.5 -11t65.5 -24.5t65 -24.5t58 -11q68 0 151 70z" />
    <glyph glyph-name="nonbreakingspace" unicode="&#xa0;" horiz-adv-x="500" 
 />
    <glyph glyph-name="exclamdown" unicode="&#xa1;" horiz-adv-x="258" 
d="M20 -31v-150h218v150l-42 302h-135zM28 478v-162h202v162h-202z" />
    <glyph glyph-name="cent" unicode="&#xa2;" horiz-adv-x="654" 
d="M449 186l185 -18q-10 -44 -30 -72q-35 -49 -98.5 -79.5t-150.5 -30.5q-11 0 -33.5 1t-56.5 3l-64 -165l-66 21l62 158q-81 23 -129 82.5t-48 151.5q0 58 21.5 105t60 80.5t91.5 51.5t117 18q10 0 28.5 -1t46.5 -3l64 162l64 -21l-60 -152q51 -14 83.5 -36.5t54.5 -52.5
q16 -20 33 -64l-182 -22q-7 22 -13.5 30.5t-21.5 21.5l-98 -250q9 -1 16.5 -1.5t12.5 -0.5q38 0 68 21.5t43 61.5zM247 135l92 238h-10q-64 0 -90 -42.5t-26 -102.5q0 -34 7.5 -53.5t26.5 -39.5z" />
    <glyph glyph-name="sterling" unicode="&#xa3;" horiz-adv-x="662" 
d="M302 379h152v-107h-134q-3 -35 -13.5 -61.5t-37.5 -55.5q29 6 48 6q14 0 35.5 -3.5t44 -7t43.5 -7t33 -3.5q28 0 48 4t53 18l68 -133q-50 -23 -87 -31.5t-81 -8.5q-23 0 -50 3.5t-57 10.5q-31 8 -49 13t-31 8t-26 4t-33 1q-66 0 -143 -40l-65 128q106 68 106 135
q0 2 -0.5 7t-1.5 13h-104v107h75q-19 59 -21 70q-2 7 -3 16t-1 19q0 52 22.5 88t60 58t85.5 31.5t100 9.5q104 0 175 -38.5t93 -134.5l-190 -27q-15 48 -33.5 64t-42.5 16q-29 0 -47.5 -17t-18.5 -48q0 -16 1.5 -26t4.5 -20.5t8.5 -24t13.5 -36.5z" />
    <glyph glyph-name="currency" unicode="&#xa4;" horiz-adv-x="613" 
d="M20 422l103 94l72 -65q57 27 112 27q54 0 111 -27l70 65l105 -94l-70 -64q26 -50 26 -99q0 -47 -26 -101l70 -63l-105 -95l-70 65q-63 -26 -113 -26q-52 0 -110 26l-68 -65l-107 95l71 63q-28 50 -28 97q0 50 28 103zM403 258q0 36 -28 61t-68 25t-68 -25t-28 -61
t28 -60.5t68 -24.5t68 24.5t28 60.5z" />
    <glyph glyph-name="yen" unicode="&#xa5;" horiz-adv-x="725" 
d="M199 375l-179 284h229l114 -224l113 224h229l-174 -284h148v-100h-210v-54h210v-101h-210v-120h-208v120h-214v101h214v54h-214v100h152z" />
    <glyph glyph-name="brokenbar" unicode="&#xa6;" horiz-adv-x="168" 
d="M20 310v349h128v-349h-128zM20 -182v349h128v-349h-128z" />
    <glyph glyph-name="section" unicode="&#xa7;" 
d="M594 521l-192 -19q-9 26 -25.5 36.5t-44.5 10.5q-34 0 -49.5 -12t-15.5 -30q0 -25 35 -41t96 -36q132 -44 183 -85q51 -42 51 -110q0 -40 -19 -72t-63 -66q26 -26 39 -52.5t13 -61.5t-14.5 -67.5t-46.5 -57t-82.5 -39t-122.5 -14.5q-52 0 -100 8.5t-86 28.5t-65 52.5
t-39 81.5l188 17q18 -33 41 -48.5t57 -15.5t51.5 15t17.5 36q0 18 -21 36q-24 22 -60 38t-76 30.5t-80 30t-72 36t-52 48.5t-20 67t22.5 71.5t76.5 67.5q-25 25 -37 49t-12 55q0 30 12 54.5t32 44t45 32t51 18.5q23 5 51.5 9t64.5 4q52 0 95 -6.5t76.5 -23t57.5 -45.5
t39 -75zM211 343q-26 -31 -26 -50q0 -18 19.5 -29.5t57.5 -27.5l193 -78q23 32 23 49q0 15 -33 34t-77 38t-89 36t-68 28z" />
    <glyph glyph-name="dieresis" unicode="&#xa8;" horiz-adv-x="383" 
d="M20 538v113h130v-113h-130zM232 538v113h131v-113h-131z" />
    <glyph glyph-name="copyright" unicode="&#xa9;" horiz-adv-x="805" 
d="M784 328q2 -69 -28.5 -132t-83.5 -110.5t-123 -75.5t-147 -26q-76 -2 -146 26t-123 75.5t-83.5 110.5t-28.5 132q-2 69 28.5 132t83.5 110.5t123 75.5t146 26q77 2 147 -26t123 -75.5t83.5 -110.5t28.5 -132zM710 328q0 57 -24.5 107.5t-66.5 88t-98 59.5t-119 22
t-119 -22t-98 -59.5t-66.5 -88t-24.5 -107.5t24.5 -107.5t66.5 -88t98 -59.5t119 -22t119 22t98 59.5t66.5 88t24.5 107.5zM492 286l102 -23q-18 -53 -52 -83q-54 -46 -137 -46q-46 0 -84.5 14t-66 39.5t-42.5 61.5t-15 80q0 41 15.5 76t43.5 61t66 40.5t84 14.5
q72 0 121.5 -35t62.5 -90l-98 -13q-9 37 -33 54.5t-58 17.5q-39 0 -65.5 -30t-26.5 -93q0 -65 18 -92q27 -40 75 -40q31 0 55.5 20t34.5 66z" />
    <glyph glyph-name="ordfeminine" unicode="&#xaa;" horiz-adv-x="404" 
d="M384 342h-108q-9 15 -12 30q-28 -21 -54 -29t-64 -8q-62 0 -94 26.5t-32 70.5q0 39 27 63q11 11 36.5 19t56 14.5t61.5 12.5t53 13q0 26 -11 35.5t-39 9.5q-27 0 -39 -7.5t-19 -27.5l-110 19q9 23 19 39.5t26.5 27.5t43 16t67.5 5q104 0 140 -25q35 -26 35 -82v-152
q0 -28 3.5 -41t13.5 -29zM254 475v18q-21 -6 -41.5 -10t-37.5 -9t-27.5 -12.5t-10.5 -22.5q0 -16 13.5 -27t35.5 -11q32 0 50 18.5t18 55.5z" />
    <glyph glyph-name="guillemotleft" unicode="&#xab;" horiz-adv-x="614" 
d="M279 239l159 209h156l-138 -209l138 -207h-156zM20 239l159 209h156l-139 -209l139 -207h-156z" />
    <glyph glyph-name="logicalnot" unicode="&#xac;" horiz-adv-x="586" 
d="M20 364v146h546v-368h-163v222h-383z" />
    <glyph glyph-name="FLW173" unicode="&#xad;" horiz-adv-x="336" 
d="M20 169v142h296v-142h-296z" />
    <glyph glyph-name="registered" unicode="&#xae;" horiz-adv-x="805" 
d="M784 328q2 -69 -28.5 -132t-83.5 -110.5t-123 -75.5t-147 -26q-76 -2 -146 26t-123 75.5t-83.5 110.5t-28.5 132q-2 69 28.5 132t83.5 110.5t123 75.5t146 26q77 2 147 -26t123 -75.5t83.5 -110.5t28.5 -132zM710 328q0 57 -24.5 107.5t-66.5 88t-98 59.5t-119 22
t-119 -22t-98 -59.5t-66.5 -88t-24.5 -107.5t24.5 -107.5t66.5 -88t98 -59.5t119 -22t119 22t98 59.5t66.5 88t24.5 107.5zM230 144v368h182q77 0 112 -28.5t35 -75.5q0 -37 -26.5 -64t-83.5 -39q27 -10 39 -20.5t28 -33.5q1 -1 66 -107h-120q-16 30 -29.5 56.5t-27 46.5
t-28 31.5t-33.5 11.5q-8 0 -13 -2v-144h-101zM331 448v-92h44q44 0 62 13t18 33t-17.5 33t-58.5 13h-48z" />
    <glyph glyph-name="overscore" unicode="&#xaf;" horiz-adv-x="564" 
d="M20 767v45h524v-45h-524z" />
    <glyph glyph-name="degree" unicode="&#xb0;" horiz-adv-x="326" 
d="M306 543q0 -26 -11.5 -49.5t-31 -41t-45.5 -28t-56 -10.5q-29 0 -55 10.5t-45.5 28t-30.5 41t-11 49.5t11 49.5t30.5 41t45.5 28t55 10.5q30 0 56 -10.5t45.5 -28t31 -41t11.5 -49.5zM213 544q0 19 -15 32t-36 13t-35.5 -13t-14.5 -32t14.5 -32.5t35.5 -13.5t36 13.5
t15 32.5z" />
    <glyph glyph-name="plusminus" unicode="&#xb1;" horiz-adv-x="585" 
d="M20 340v142h191v168h161v-168h193v-142h-193v-160h-161v160h-191zM20 0v139h545v-139h-545z" />
    <glyph glyph-name="twosuperior" unicode="&#xb2;" horiz-adv-x="425" 
d="M405 416v-83h-385q9 31 22 51t32 36t45.5 32t64.5 38q28 17 46 29.5t25 20.5q14 17 14 29q0 30 -46 30q-25 0 -41 -11.5t-24 -38.5l-123 9q9 36 24 54q22 27 63.5 43t106.5 16q90 0 132 -30t42 -71q0 -32 -21 -57q-10 -12 -30 -26t-42.5 -27t-44 -24.5t-35.5 -19.5h175z
" />
    <glyph glyph-name="threesuperior" unicode="&#xb3;" horiz-adv-x="418" 
d="M154 566l-128 18q12 20 27 36.5t33 26.5q50 25 128 25q88 0 136 -31q32 -20 32 -56q0 -45 -62 -72q40 -11 59 -34t19 -54q0 -41 -37 -66q-50 -35 -151 -35q-94 0 -147 36q-29 19 -43 60l126 13q15 -40 62 -40q28 0 43.5 12.5t15.5 28.5q0 28 -26.5 35t-76.5 9l14 64
q44 0 59 10t15 24q0 27 -41 27t-57 -37z" />
    <glyph glyph-name="acute" unicode="&#xb4;" horiz-adv-x="298" 
d="M20 537l84 134h174l-161 -134h-97z" />
    <glyph glyph-name="mu1" unicode="&#xb5;" horiz-adv-x="602" 
d="M20 -181v658h204v-240q0 -49 17.5 -74t60.5 -25q77 0 77 105v234h203v-478h-191v38q-31 -48 -83 -48q-24 0 -46 10.5t-38 34.5v-215h-204z" />
    <glyph glyph-name="paragraph" unicode="&#xb6;" horiz-adv-x="780" 
d="M274 660h486v-143h-65v-700h-149v700h-83v-700h-149v461h-34q-56 0 -104 10.5t-82.5 33.5t-54 60t-19.5 91q0 91 63.5 139t190.5 48z" />
    <glyph glyph-name="middot" unicode="&#xb7;" horiz-adv-x="258" 
d="M20 237v184h218v-184h-218z" />
    <glyph glyph-name="cedilla" unicode="&#xb8;" horiz-adv-x="343" 
d="M69 -74l15 52q49 11 88 11q86 0 118.5 -26.5t32.5 -61.5q0 -17 -8.5 -34t-28 -31t-52 -23t-80.5 -8q-28 0 -62 3.5t-72 9.5v55q26 -5 53.5 -7t57.5 -2q43 0 58 10t15 27q0 13 -12.5 22.5t-38.5 9.5q-18 0 -39 -2t-45 -5z" />
    <glyph glyph-name="onesuperior" unicode="&#xb9;" horiz-adv-x="284" 
d="M164 671h100v-338h-130v201q-28 -14 -51 -21.5t-63 -14.5v93q92 21 144 80z" />
    <glyph glyph-name="ordmasculine" unicode="&#xba;" horiz-adv-x="423" 
d="M21 502q-1 34 11.5 64.5t37.5 54t61.5 37t83.5 13.5q86 0 137 -46.5t51 -123.5q0 -74 -51.5 -120t-135.5 -46q-51 0 -88.5 14.5t-61.5 38.5t-35 54t-10 60zM145 502q0 -39 14.5 -64.5t55.5 -25.5q29 0 47 20.5t18 69.5q0 50 -18.5 71t-48.5 21q-31 0 -49.5 -21t-18.5 -71
z" />
    <glyph glyph-name="guillemotright" unicode="&#xbb;" horiz-adv-x="614" 
d="M335 239l-159 209h-156l138 -209l-138 -207h156zM594 239l-159 209h-156l139 -209l-139 -207h156z" />
    <glyph glyph-name="onequarter" unicode="&#xbc;" horiz-adv-x="948" 
d="M164 671h100v-338h-130v202q-28 -15 -51 -22t-63 -14v92q92 21 144 80zM182 -23l460 694h107l-461 -694h-106zM766 -22v54h-204v85l210 208h106v-218h50v-75h-50v-54h-112zM664 107h102v98z" />
    <glyph glyph-name="onehalf" unicode="&#xbd;" horiz-adv-x="958" 
d="M164 671h100v-338h-130v202q-28 -15 -51 -22t-63 -14v92q92 21 144 80zM167 -23l460 694h107l-461 -694h-106zM938 69v-83h-385q9 31 22 51t32 36.5t46 32.5t64 38q56 33 71 50q14 16 14 28q0 14 -11.5 22.5t-34.5 8.5q-51 0 -65 -51l-123 10q9 36 24 54q22 27 64 43
t106 16q90 0 132 -30t42 -71q0 -31 -21 -58q-10 -12 -30 -26t-42.5 -27t-44 -24.5t-35.5 -19.5h175z" />
    <glyph glyph-name="threequarters" unicode="&#xbe;" horiz-adv-x="990" 
d="M154 566l-128 18q12 20 27 36.5t33 25.5q50 25 128 25q90 0 136 -30q32 -22 32 -56q0 -45 -62 -72q40 -11 59 -34.5t19 -53.5q0 -42 -37 -67q-51 -34 -151 -34q-94 0 -147 36q-29 19 -43 59l126 14q16 -41 62 -41q28 0 43.5 12.5t15.5 29.5q0 28 -26.5 35t-76.5 9l14 64
q44 0 59 9.5t15 24.5q0 11 -10.5 19t-30.5 8q-40 0 -57 -37zM237 -23l460 694h107l-461 -694h-106zM808 -22v54h-204v85l210 208h106v-218h50v-75h-50v-54h-112zM706 107h102v98z" />
    <glyph glyph-name="questiondown" unicode="&#xbf;" horiz-adv-x="594" 
d="M218 271h190v-17q0 -39 -9 -65t-27 -47.5t-44.5 -41.5t-61.5 -46q-40 -30 -40 -55q0 -52 64 -52q36 0 59 21.5t31 73.5l194 -22q-10 -96 -78 -155t-208 -59q-108 0 -176 42q-92 55 -92 147q0 54 32 87.5t88 73.5q22 15 37 27t24 24t13 27t4 37zM414 478v-162h-204v162
h204z" />
    <glyph glyph-name="Agrave" unicode="&#xc0;" horiz-adv-x="838" 
d="M575 21l-41 118h-239l-34 -118h-241l180 659h433l185 -659h-243zM334 282h172l-92 260zM407 770l-160 134h174l82 -134h-96z" />
    <glyph glyph-name="Aacute" unicode="&#xc1;" horiz-adv-x="838" 
d="M576 -1l-41 118h-239l-34 -118h-241l180 659h433l185 -659h-243zM335 260h172l-92 260zM329 770l84 134h174l-161 -134h-97z" />
    <glyph glyph-name="Acircumflex" unicode="&#xc2;" horiz-adv-x="838" 
d="M581 0l-36 109h-258l-36 -109h-231l275 660h248l275 -660h-237zM336 252h161l-80 237zM233 700l114 129h145l111 -129h-124l-61 69l-61 -69h-124z" />
    <glyph glyph-name="Atilde" unicode="&#xc3;" horiz-adv-x="838" 
d="M581 0l-36 109h-258l-36 -109h-231l275 659h248l275 -659h-237zM336 252h161l-80 236zM519 823h78q1 -6 1 -11v-10q0 -50 -28 -77t-72 -27q-9 0 -29.5 6t-44 13t-45 13t-32.5 6q-15 0 -23 -8t-9 -28h-78v18q0 49 29.5 77t70.5 28q13 0 32.5 -6t41 -13.5t41.5 -13.5t35 -6
q13 0 22 8.5t10 30.5z" />
    <glyph glyph-name="Adieresis" unicode="&#xc4;" horiz-adv-x="838" 
d="M575 -9l-41 118h-239l-34 -118h-241l180 659h433l185 -659h-243zM334 252h172l-92 260zM246 740v113h130v-113h-130zM458 740v113h131v-113h-131z" />
    <glyph glyph-name="Aring" unicode="&#xc5;" horiz-adv-x="838" 
d="M295 659h18q-16 25 -16 55q0 45 35.5 76.5t84.5 31.5t84.5 -31.5t35.5 -76.5q0 -28 -16 -55h22l275 -659h-237l-38 109h-254l-38 -109h-231zM365 714q0 -20 15 -33t37 -13q21 0 35.5 13t14.5 33t-14.5 33t-35.5 13q-22 0 -37 -13t-15 -33zM342 259h149l-74 219z" />
    <glyph glyph-name="AE" unicode="&#xc6;" horiz-adv-x="1066" 
d="M20 0l316 659h700v-141h-309v-104h281v-135h-281v-130h319v-149h-532v118h-218l-48 -118h-228zM514 525h-50l-106 -257h156v257z" />
    <glyph glyph-name="Ccedilla" unicode="&#xc7;" horiz-adv-x="623" 
d="M603 141v-153h-201q-88 0 -159 22.5t-120.5 66t-76 107.5t-26.5 147q0 163 97 251.5t274 88.5h212v-153h-207q-45 -4 -71 -16t-47 -40q-30 -42 -30 -129q0 -84 31.5 -135t108.5 -57h215zM258 -122l15 52q49 11 88 11q86 0 118.5 -26.5t32.5 -61.5q0 -17 -8.5 -34t-28 -31
t-52 -23t-80.5 -8q-28 0 -62 3.5t-72 9.5v55q26 -5 53.5 -7t57.5 -2q43 0 58 10t15 27q0 13 -12.5 22.5t-38.5 9.5q-18 0 -39 -2t-45 -5z" />
    <glyph glyph-name="Egrave" unicode="&#xc8;" horiz-adv-x="737" 
d="M20 -7v666h608v-162h-380v-97h352v-146h-352v-97h469v-164h-697zM306 749l-160 134h174l82 -134h-96z" />
    <glyph glyph-name="Eacute" unicode="&#xc9;" horiz-adv-x="737" 
d="M20 -7v666h608v-162h-380v-97h352v-146h-352v-97h469v-164h-697zM228 749l84 134h174l-161 -134h-97z" />
    <glyph glyph-name="Ecircumflex" unicode="&#xca;" horiz-adv-x="658" 
d="M20 0v660h608v-142h-380v-104h352v-135h-352v-130h390v-149h-618zM132 700l114 129h145l111 -129h-124l-61 69l-61 -69h-124z" />
    <glyph glyph-name="Edieresis" unicode="&#xcb;" horiz-adv-x="737" 
d="M20 -16v666h608v-162h-380v-97h352v-146h-352v-97h469v-164h-697zM145 740v113h130v-113h-130zM357 740v113h131v-113h-131z" />
    <glyph glyph-name="Igrave" unicode="&#xcc;" horiz-adv-x="322" 
d="M75 -9v659h227v-659h-227zM180 740l-160 134h174l82 -134h-96z" />
    <glyph glyph-name="Iacute" unicode="&#xcd;" horiz-adv-x="325" 
d="M20 -9v659h227v-659h-227zM47 740l84 134h174l-161 -134h-97z" />
    <glyph glyph-name="Icircumflex" unicode="&#xce;" horiz-adv-x="410" 
d="M89 0v660h227v-660h-227zM20 700l114 129h145l111 -129h-124l-61 69l-61 -69h-124z" />
    <glyph glyph-name="Idieresis" unicode="&#xcf;" horiz-adv-x="383" 
d="M76 -9v659h227v-659h-227zM20 740v113h130v-113h-130zM232 740v113h131v-113h-131z" />
    <glyph glyph-name="Eth" unicode="&#xd0;" horiz-adv-x="791" 
d="M97 379v280h336q85 0 148.5 -23.5t105.5 -66.5t63 -103t21 -133q0 -53 -10 -104t-33.5 -93t-62.5 -73t-98 -45q-75 -18 -134 -18h-336v279h-77v100h77zM379 510h-56v-131h110v-100h-110v-130h56q52 0 84 11t50 33t24.5 55.5t6.5 78.5q0 47 -7 81t-25 57t-50 34t-83 11z
" />
    <glyph glyph-name="Ntilde" unicode="&#xd1;" horiz-adv-x="785" 
d="M472 823h78q1 -6 1 -11v-10q0 -50 -28 -77t-72 -27q-9 0 -29.5 6t-44 13t-45 13t-32.5 6q-15 0 -23 -8t-9 -28h-78v18q0 49 30 77t70 28q13 0 32.5 -6t41 -13.5t41.5 -13.5t35 -6q14 0 22 8.5t10 30.5zM21 1v659h212l276 -364v364h330v-162h-116v-497h-214l-274 361v-361
h-214z" />
    <glyph glyph-name="Ograve" unicode="&#xd2;" horiz-adv-x="800" 
d="M20 320q0 161 100 251.5t279 90.5q183 0 282 -88.5t99 -247.5q-1 -169 -95.5 -257.5t-276.5 -88.5q-88 0 -160 22.5t-122.5 65.5t-78 106.5t-27.5 145.5zM247 319q0 -100 41.5 -143.5t111.5 -43.5q74 0 114 43t40 153q0 93 -42 136t-114 43q-68 0 -109.5 -44t-41.5 -144z
M390 740l-160 134h174l82 -134h-96z" />
    <glyph glyph-name="Oacute" unicode="&#xd3;" horiz-adv-x="800" 
d="M20 320q0 161 100 251.5t279 90.5q183 0 282 -88.5t99 -247.5q-1 -169 -95.5 -257.5t-276.5 -88.5q-88 0 -160 22.5t-122.5 65.5t-78 106.5t-27.5 145.5zM247 319q0 -100 41.5 -143.5t111.5 -43.5q74 0 114 43t40 153q0 93 -42 136t-114 43q-68 0 -109.5 -44t-41.5 -144z
M312 740l84 134h174l-161 -134h-97z" />
    <glyph glyph-name="Ocircumflex" unicode="&#xd4;" horiz-adv-x="800" 
d="M20 330q0 161 100 251.5t279 90.5q183 0 282 -88.5t99 -248.5q-1 -168 -95.5 -256.5t-276.5 -88.5q-88 0 -160 22.5t-122.5 65.5t-78 106.5t-27.5 145.5zM247 329q0 -100 41.5 -143.5t111.5 -43.5q74 0 114 42.5t40 153.5q0 93 -42 136t-114 43q-68 0 -109.5 -43.5
t-41.5 -144.5zM216 701l114 128h145l111 -128h-124l-61 68l-61 -68h-124z" />
    <glyph glyph-name="Otilde" unicode="&#xd5;" horiz-adv-x="800" 
d="M20 329q0 162 100 252t279 90q183 0 282 -88.5t99 -247.5q-1 -168 -95.5 -257t-276.5 -89q-88 0 -160 22.5t-122.5 66t-78 106.5t-27.5 145zM247 329q0 -101 41.5 -144.5t111.5 -43.5q74 0 114 43t40 154q0 93 -42 136t-114 43q-68 0 -109.5 -43.5t-41.5 -144.5zM502 824
h78q1 -7 1 -11.5v-9.5q0 -50 -28 -77t-72 -27q-9 0 -29.5 6t-44 12.5t-45 12.5t-32.5 6q-15 0 -23 -8t-9 -28h-78v18q0 49 30 77.5t70 28.5q13 0 32.5 -6t41 -13.5t41.5 -13.5t35 -6q14 0 22 8.5t10 30.5z" />
    <glyph glyph-name="Odieresis" unicode="&#xd6;" horiz-adv-x="800" 
d="M20 321q0 161 100 251.5t279 90.5q183 0 282 -88.5t99 -247.5q-1 -169 -95.5 -257.5t-276.5 -88.5q-88 0 -160 22.5t-122.5 65.5t-78 106.5t-27.5 145.5zM247 320q0 -100 41.5 -143.5t111.5 -43.5q74 0 114 43t40 153q0 93 -42 136t-114 43q-68 0 -109.5 -44t-41.5 -144z
M229 741v113h130v-113h-130zM441 741v113h131v-113h-131z" />
    <glyph glyph-name="multiply" unicode="&#xd7;" horiz-adv-x="588" 
d="M20 471l116 105l158 -143l158 143l116 -105l-158 -141l158 -143l-116 -104l-158 143l-158 -143l-116 104l160 143z" />
    <glyph glyph-name="Oslash" unicode="&#xd8;" horiz-adv-x="858" 
d="M675 608l87 74l76 -72l-87 -74q26 -37 41.5 -91.5t15.5 -113.5q0 -173 -100 -257t-279 -85q-91 0 -157 20q-46 14 -90 43l-87 -76l-75 72l88 76q-60 82 -60 203q0 163 99.5 253.5t277.5 90.5q155 0 250 -63zM280 270l249 214q-38 32 -103 32q-68 0 -110 -43t-42 -141
q0 -30 6 -62zM577 387l-251 -213q38 -33 102 -33q73 0 113 42t40 147q0 14 -1 29t-3 28z" />
    <glyph glyph-name="Ugrave" unicode="&#xd9;" horiz-adv-x="742" 
d="M496 303v356h226v-394q0 -99 -26 -155t-73 -83.5t-111 -33.5t-141 -6q-78 0 -143 6t-111 33.5t-71.5 83.5t-25.5 155v394h226v-353q0 -43 8.5 -67t25 -36t40 -14.5t53.5 -2.5q29 0 52 3.5t39 15.5t24 35t8 63zM360 749l-160 134h174l82 -134h-96z" />
    <glyph glyph-name="Uacute" unicode="&#xda;" horiz-adv-x="742" 
d="M496 303v356h226v-394q0 -99 -26 -155t-73 -83.5t-111 -33.5t-141 -6q-78 0 -143 6t-111 33.5t-71.5 83.5t-25.5 155v394h226v-353q0 -43 8.5 -67t25 -36t40 -14.5t53.5 -2.5q29 0 52 3.5t39 15.5t24 35t8 63zM282 749l84 134h174l-161 -134h-97z" />
    <glyph glyph-name="Ucircumflex" unicode="&#xdb;" horiz-adv-x="742" 
d="M496 258v402h226v-393q0 -40 -11 -79.5t-32.5 -74t-54 -61.5t-76.5 -41q-34 -11 -73 -16.5t-86 -5.5q-53 0 -107.5 6.5t-102.5 24.5t-84.5 50t-54.5 85q-20 60 -20 112v393h226v-402q0 -54 33 -84.5t92 -30.5t92 29.5t33 85.5zM186 701l114 128h145l111 -128h-124l-61 68
l-61 -68h-124z" />
    <glyph glyph-name="Udieresis" unicode="&#xdc;" horiz-adv-x="742" 
d="M496 295v356h226v-394q0 -99 -26 -155t-73 -83.5t-111 -33.5t-141 -6q-78 0 -143 6t-111 33.5t-71.5 83.5t-25.5 155v394h226v-353q0 -43 8.5 -67t25 -36t40 -14.5t53.5 -2.5q29 0 52 3.5t39 15.5t24 35t8 63zM199 741v113h130v-113h-130zM411 741v113h131v-113h-131z
" />
    <glyph glyph-name="Yacute" unicode="&#xdd;" horiz-adv-x="837" 
d="M305 268l-285 383h251l148 -222l148 222h250l-284 -383v-276h-228v276zM329 741l84 134h174l-161 -134h-97z" />
    <glyph glyph-name="Thorn" unicode="&#xde;" horiz-adv-x="662" 
d="M20 0v659h228v-118h148q123 0 184.5 -52.5t61.5 -149.5q0 -99 -67 -155.5t-203 -56.5h-124v-127h-228zM248 408v-147h55q65 0 92 20.5t27 51.5t-23 53t-87 22h-64z" />
    <glyph glyph-name="germandbls" unicode="&#xdf;" horiz-adv-x="627" 
d="M214 0h-194v457q0 45 14 84.5t46 68t83.5 45t126.5 16.5q121 0 174.5 -39t53.5 -96q0 -12 -9 -34t-20 -46t-20 -45.5t-9 -32.5q0 -13 6.5 -23.5t28.5 -29.5q64 -52 93 -104q19 -35 19 -80q0 -66 -49.5 -109t-132.5 -43q-55 0 -95 14.5t-77 52.5l117 63q16 -20 34 -20
q17 0 28.5 10t11.5 26q0 19 -18.5 39t-44 42t-52.5 46t-43 50q-4 9 -7 18.5t-3 20.5t9.5 32.5t20.5 46t20.5 46.5t9.5 33q0 20 -15.5 33.5t-40.5 13.5q-28 0 -47 -21t-19 -74v-461z" />
    <glyph glyph-name="agrave" unicode="&#xe0;" 
d="M231 313l-195 18q11 47 32 73t60 45q28 13 77 21t106 8q91 0 146.5 -9t92.5 -38q26 -21 41 -57.5t15 -70.5v-212q0 -34 5 -53t21 -49h-191q-11 19 -14.5 28.5t-7.5 30.5q-20 -17 -39.5 -29.5t-39.5 -19.5q-27 -11 -58.5 -15.5t-67.5 -4.5q-95 0 -144.5 39t-49.5 97
q0 55 36 90q35 35 131 53q48 9 76 13.5t49 8.5t42 10t54 18q0 34 -15.5 47.5t-54.5 13.5q-52 0 -76 -14q-19 -11 -31 -42zM408 187v29q-21 -7 -43.5 -12.5t-44.5 -10.5q-49 -11 -72.5 -24.5t-23.5 -38.5q0 -22 17 -36t49 -14q54 0 86 30t32 77zM315 567l-160 134h174
l82 -134h-96z" />
    <glyph glyph-name="aacute" unicode="&#xe1;" 
d="M231 313l-195 18q11 47 32 73t60 45q28 13 77 21t106 8q91 0 146.5 -9t92.5 -38q26 -21 41 -57.5t15 -70.5v-212q0 -34 5 -53t21 -49h-191q-11 19 -14.5 28.5t-7.5 30.5q-20 -17 -39.5 -29.5t-39.5 -19.5q-27 -11 -58.5 -15.5t-67.5 -4.5q-95 0 -144.5 39t-49.5 97
q0 55 36 90q35 35 131 53q48 9 76 13.5t49 8.5t42 10t54 18q0 34 -15.5 47.5t-54.5 13.5q-52 0 -76 -14q-19 -11 -31 -42zM408 187v29q-21 -7 -43.5 -12.5t-44.5 -10.5q-49 -11 -72.5 -24.5t-23.5 -38.5q0 -22 17 -36t49 -14q54 0 86 30t32 77zM237 567l84 134h174
l-161 -134h-97z" />
    <glyph glyph-name="acircumflex" unicode="&#xe2;" 
d="M231 323l-195 19q11 46 32 72t60 45q28 14 77 22t106 8q91 0 146.5 -9.5t92.5 -38.5q26 -20 41 -57t15 -70v-212q0 -34 5 -53t21 -49h-191q-11 19 -14.5 28.5t-7.5 30.5q-39 -35 -79 -50q-53 -19 -126 -19q-95 0 -144.5 39t-49.5 97q0 56 36 90q36 36 131 52
q48 9 76 13.5t49 9t42 10.5t54 18q0 34 -15.5 47.5t-54.5 13.5q-52 0 -76 -14q-20 -13 -31 -43zM408 198v29q-21 -7 -43.5 -12.5t-44.5 -10.5q-49 -11 -72.5 -24.5t-23.5 -38.5q0 -22 17 -36t49 -14q54 0 86 30t32 77zM141 537l114 128h145l111 -128h-124l-61 68l-61 -68
h-124z" />
    <glyph glyph-name="atilde" unicode="&#xe3;" 
d="M231 323l-195 19q11 46 32 72t60 45q28 14 77 22t106 8q91 0 146.5 -9.5t92.5 -38.5q26 -20 41 -57t15 -71v-211q0 -34 5 -53t21 -49h-191q-11 18 -14.5 28t-7.5 30q-40 -34 -79 -49q-55 -20 -126 -20q-95 0 -144.5 39.5t-49.5 97.5q0 56 36 90t131 52q48 9 76 13.5t49 9
t42 10.5t54 18q0 34 -15.5 47.5t-54.5 13.5q-50 0 -76 -15q-19 -11 -31 -42zM408 198v29q-21 -7 -43.5 -12.5t-44.5 -11.5q-49 -11 -72.5 -24t-23.5 -39q0 -21 17 -35t49 -14q54 0 86 30t32 77zM427 660h78q1 -6 1 -11v-10q0 -50 -28 -77t-72 -27q-9 0 -29.5 6t-44 12.5
t-45 12.5t-32.5 6q-15 0 -23 -8t-9 -28h-78v18q0 49 29.5 77.5t70.5 28.5q13 0 32.5 -6t41 -13.5t41.5 -13.5t35 -6q13 0 22 8.5t10 30.5z" />
    <glyph glyph-name="adieresis" unicode="&#xe4;" 
d="M231 314l-195 18q11 47 32 73t60 45q28 13 77 21t106 8q91 0 146.5 -9t92.5 -38q26 -21 41 -57.5t15 -70.5v-212q0 -34 5 -53t21 -49h-191q-11 19 -14.5 28.5t-7.5 30.5q-20 -17 -39.5 -29.5t-39.5 -19.5q-27 -11 -58.5 -15.5t-67.5 -4.5q-95 0 -144.5 39t-49.5 97
q0 55 36 90q35 35 131 53q48 9 76 13.5t49 8.5t42 10t54 18q0 34 -15.5 47.5t-54.5 13.5q-52 0 -76 -14q-19 -11 -31 -42zM408 188v29q-21 -7 -43.5 -12.5t-44.5 -10.5q-49 -11 -72.5 -24.5t-23.5 -38.5q0 -22 17 -36t49 -14q54 0 86 30t32 77zM154 568v113h130v-113h-130z
M366 568v113h131v-113h-131z" />
    <glyph glyph-name="aring" unicode="&#xe5;" 
d="M231 323l-195 18q11 47 32 73t60 45q28 13 77 21t106 8q91 0 146.5 -9t92.5 -38q26 -21 41 -57.5t15 -70.5v-212q0 -34 5 -53t21 -49h-191q-11 19 -14.5 28.5t-7.5 30.5q-20 -17 -39.5 -29.5t-39.5 -19.5q-27 -11 -58.5 -15.5t-67.5 -4.5q-95 0 -144.5 39t-49.5 97
q0 55 36 90q35 35 131 53q48 9 76 13.5t49 8.5t42 10t54 18q0 34 -15.5 47.5t-54.5 13.5q-52 0 -76 -14q-19 -11 -31 -42zM408 197v29q-21 -7 -43.5 -12.5t-44.5 -10.5q-49 -11 -72.5 -24.5t-23.5 -38.5q0 -22 17 -36t49 -14q54 0 86 30t32 77zM445 631q0 -45 -35.5 -76.5
t-84.5 -31.5t-84.5 31.5t-35.5 76.5t35.5 76.5t84.5 31.5t84.5 -31.5t35.5 -76.5zM377 631q0 19 -15 33t-37 14t-37 -14t-15 -33t15 -32.5t37 -13.5t37 13.5t15 32.5z" />
    <glyph glyph-name="ae" unicode="&#xe6;" horiz-adv-x="1001" 
d="M981 224v-30h-385q4 -44 28 -70.5t67 -26.5q25 0 43.5 10t35.5 35l198 -15q-40 -68 -104.5 -103t-171.5 -35q-82 0 -142 21q-46 17 -86 54q-62 -40 -117 -57.5t-123 -17.5q-101 0 -152.5 38.5t-51.5 99.5q0 54 39 87.5t89 47.5q5 2 30.5 7t55.5 11t55.5 11t30.5 6
q17 3 36.5 8t41.5 12q-1 36 -16.5 49t-55.5 13q-42 0 -63 -14t-29 -43l-196 21q15 48 34 72q26 33 80.5 53.5t153.5 20.5q79 0 130 -12q18 -5 38 -14t42 -22q46 27 83.5 37t89.5 10q58 0 103.5 -12t79 -32t56 -45t34.5 -52q10 -22 14.5 -53.5t4.5 -69.5zM594 281h184
q-4 47 -26 72.5t-63 25.5q-36 0 -61.5 -23.5t-33.5 -74.5zM398 194v34l-62 -19q-6 -1 -11 -2.5t-10 -1.5q-49 -9 -69 -26t-20 -35q0 -21 16.5 -36t43.5 -15q43 0 77.5 25.5t34.5 75.5z" />
    <glyph glyph-name="ccedilla" unicode="&#xe7;" horiz-adv-x="654" 
d="M441 187l193 -20q-27 -82 -93.5 -130t-196.5 -48q-68 0 -127 13.5t-103 43.5t-69 77t-25 113q0 74 28 123q20 36 56 64.5t73 42.5q59 22 152 22q131 0 199 -42t95 -123l-191 -22q-19 62 -97 62q-50 0 -81 -32.5t-31 -98.5q0 -59 31 -90t79 -31q82 0 108 76zM212 -112
l15 52q49 11 88 11q86 0 118.5 -26.5t32.5 -61.5q0 -17 -8.5 -34t-28 -31t-52 -23t-80.5 -8q-28 0 -62 3.5t-72 9.5v55q26 -5 53.5 -7t57.5 -2q43 0 58 10t15 27q0 13 -12.5 22.5t-38.5 9.5q-18 0 -39 -2t-45 -5z" />
    <glyph glyph-name="egrave" unicode="&#xe8;" horiz-adv-x="655" 
d="M635 214v-21h-408q6 -43 27 -66q28 -30 76 -30q29 0 49.5 9t43.5 34l201 -16q-26 -41 -55.5 -67t-65 -41t-79 -21t-98.5 -6q-66 0 -122 15.5t-97 46.5t-64 77.5t-23 108.5q0 59 22.5 106t62 79t94.5 49t121 17q152 0 233.5 -68.5t81.5 -205.5zM228 280h200q-6 53 -32 76
t-68 23q-45 0 -70.5 -26.5t-29.5 -72.5zM315 577l-160 134h174l82 -134h-96z" />
    <glyph glyph-name="eacute" unicode="&#xe9;" horiz-adv-x="655" 
d="M635 214v-21h-408q6 -43 27 -66q28 -30 76 -30q29 0 49.5 9t43.5 34l201 -16q-26 -41 -55.5 -67t-65 -41t-79 -21t-98.5 -6q-66 0 -122 15.5t-97 46.5t-64 77.5t-23 108.5q0 59 22.5 106t62 79t94.5 49t121 17q152 0 233.5 -68.5t81.5 -205.5zM228 280h200q-6 53 -32 76
t-68 23q-45 0 -70.5 -26.5t-29.5 -72.5zM237 577l84 134h174l-161 -134h-97z" />
    <glyph glyph-name="ecircumflex" unicode="&#xea;" horiz-adv-x="655" 
d="M635 214v-20h-408q6 -45 27 -66q27 -30 76 -30q29 0 49.5 9t43.5 34l201 -17q-26 -40 -55.5 -66t-65 -41t-79 -21t-98.5 -6q-66 0 -122 15.5t-97 46t-64 77t-23 109.5q0 59 22.5 105.5t62 79t94.5 49.5t121 17q152 0 233.5 -68.5t81.5 -206.5zM228 281h200q-6 53 -32 76
t-68 23q-45 0 -70.5 -26.5t-29.5 -72.5zM141 537l114 128h145l111 -128h-124l-61 68l-61 -68h-124z" />
    <glyph glyph-name="edieresis" unicode="&#xeb;" horiz-adv-x="655" 
d="M635 205v-21h-408q6 -43 27 -66q28 -30 76 -30q29 0 49.5 9t43.5 34l201 -16q-26 -41 -55.5 -67t-65 -41t-79 -21t-98.5 -6q-66 0 -122 15.5t-97 46.5t-64 77.5t-23 108.5q0 59 22.5 106t62 79t94.5 49t121 17q152 0 233.5 -68.5t81.5 -205.5zM228 271h200q-6 53 -32 76
t-68 23q-45 0 -70.5 -26.5t-29.5 -72.5zM154 568v113h130v-113h-130zM366 568v113h131v-113h-131z" />
    <glyph glyph-name="igrave" unicode="&#xec;" horiz-adv-x="312" 
d="M89 0v478h203v-478h-203zM180 537l-160 135h174l82 -135h-96z" />
    <glyph glyph-name="iacute" unicode="&#xed;" horiz-adv-x="311" 
d="M20 0v478h203v-478h-203zM33 537l84 135h174l-161 -135h-97z" />
    <glyph glyph-name="icircumflex" unicode="&#xee;" horiz-adv-x="410" 
d="M103 0v478h203v-478h-203zM20 536l114 129h145l111 -129h-124l-61 69l-61 -69h-124z" />
    <glyph glyph-name="idieresis" unicode="&#xef;" horiz-adv-x="383" 
d="M90 0v478h203v-478h-203zM20 538v113h130v-113h-130zM232 538v113h131v-113h-131z" />
    <glyph glyph-name="eth" unicode="&#xf0;" horiz-adv-x="647" 
d="M161 491l-19 49l127 40q-32 29 -58 46.5t-59 33.5h206q15 -8 28.5 -16t27.5 -17l102 33l18 -46l-73 -24q166 -150 166 -328q0 -128 -80.5 -200.5t-220.5 -72.5q-64 0 -119.5 17t-97 49t-65.5 78.5t-24 105.5q0 47 18.5 90t51 76t77.5 53t99 20q29 0 53 -6t53 -22
q-17 26 -33 49t-31 41zM224 238q0 -64 28.5 -94.5t69.5 -30.5q57 0 80.5 39.5t23.5 94.5q0 32 -9 54.5t-23.5 36.5t-32.5 20t-37 6q-42 0 -71 -30.5t-29 -95.5z" />
    <glyph glyph-name="ntilde" unicode="&#xf1;" horiz-adv-x="601" 
d="M20 0v477h189v-78q43 48 86.5 68.5t105.5 20.5q85 0 132.5 -45t47.5 -139v-304h-205v262q0 46 -18 64.5t-52 18.5q-37 0 -60 -25.5t-23 -90.5v-229h-203zM401 659h78q1 -6 1 -10.5v-9.5q0 -50 -28 -77.5t-72 -27.5q-9 0 -29.5 6t-44 13t-45 13t-32.5 6q-15 0 -23 -8
t-9 -28h-78v18q0 49 29.5 77t70.5 28q13 0 32.5 -6t41 -13t41.5 -13t35 -6q13 0 22 8t10 30z" />
    <glyph glyph-name="ograve" unicode="&#xf2;" horiz-adv-x="650" 
d="M20 227q0 59 23.5 105.5t64 78.5t96.5 49.5t120 17.5q160 0 241 -83q65 -66 65 -165q0 -60 -23 -106.5t-64 -78.5t-97 -49t-122 -17q-127 0 -206 58q-98 74 -98 190zM224 227q0 -63 29 -93.5t73 -30.5t72 30t28 96q0 62 -28.5 92.5t-70.5 30.5q-44 0 -73.5 -30.5
t-29.5 -94.5zM315 567l-160 134h174l82 -134h-96z" />
    <glyph glyph-name="oacute" unicode="&#xf3;" horiz-adv-x="650" 
d="M20 227q0 59 23.5 105.5t64 78.5t96.5 49.5t120 17.5q160 0 241 -83q65 -66 65 -165q0 -60 -23 -106.5t-64 -78.5t-97 -49t-122 -17q-127 0 -206 58q-98 74 -98 190zM224 227q0 -63 29 -93.5t73 -30.5t72 30t28 96q0 62 -28.5 92.5t-70.5 30.5q-44 0 -73.5 -30.5
t-29.5 -94.5zM237 567l84 134h174l-161 -134h-97z" />
    <glyph glyph-name="ocircumflex" unicode="&#xf4;" horiz-adv-x="650" 
d="M20 238q0 58 23.5 105t64 79t96.5 49.5t120 17.5q160 0 241 -84q65 -65 65 -164q0 -60 -23 -106.5t-64 -79t-97 -49t-122 -16.5q-129 0 -206 58q-98 74 -98 190zM224 238q0 -64 29 -94t73 -30t72 30t28 96q0 62 -28.5 92.5t-70.5 30.5q-44 0 -73.5 -31t-29.5 -94z
M141 537l114 128h145l111 -128h-124l-61 68l-61 -68h-124z" />
    <glyph glyph-name="otilde" unicode="&#xf5;" horiz-adv-x="650" 
d="M20 238q0 58 23.5 104.5t64 79t96.5 50t120 17.5q160 0 241 -84q65 -65 65 -165q0 -60 -23 -106.5t-64 -78.5t-97 -49t-122 -17q-127 0 -206 59q-98 72 -98 190zM224 238q0 -64 29 -94.5t73 -30.5t72 30t28 96q0 62 -28.5 93t-70.5 31q-44 0 -73.5 -31t-29.5 -94z
M427 660h78q1 -6 1 -11v-10q0 -50 -28 -77t-72 -27q-9 0 -29.5 6t-44 12.5t-45 12.5t-32.5 6q-15 0 -23 -8t-9 -28h-78v18q0 49 29.5 77.5t70.5 28.5q13 0 32.5 -6t41 -13.5t41.5 -13.5t35 -6q13 0 22 8.5t10 30.5z" />
    <glyph glyph-name="odieresis" unicode="&#xf6;" horiz-adv-x="650" 
d="M20 228q0 59 23.5 105.5t64 78.5t96.5 49.5t120 17.5q160 0 241 -83q65 -66 65 -165q0 -60 -23 -106.5t-64 -78.5t-97 -49t-122 -17q-127 0 -206 58q-98 74 -98 190zM224 228q0 -63 29 -93.5t73 -30.5t72 30t28 96q0 62 -28.5 92.5t-70.5 30.5q-44 0 -73.5 -30.5
t-29.5 -94.5zM154 568v113h130v-113h-130zM366 568v113h131v-113h-131z" />
    <glyph glyph-name="divide" unicode="&#xf7;" horiz-adv-x="585" 
d="M191 444v166h201v-166h-201zM20 256v147h545v-147h-545zM191 46v169h201v-169h-201z" />
    <glyph glyph-name="oslash" unicode="&#xf8;" horiz-adv-x="650" 
d="M494 453l66 67l52 -43l-62 -61q34 -26 57 -73.5t23 -103.5q0 -59 -22.5 -105t-62.5 -78.5t-95 -49.5t-120 -17q-28 0 -52.5 2t-46.5 7q-32 5 -75 25l-66 -67l-52 43l63 62q-43 41 -62 82t-19 93q0 58 23 104.5t63 79.5t95 50.5t120 17.5q28 0 53 -2.5t47 -7.5
q31 -6 73 -25zM219 178l175 174q-12 12 -24 17q-21 7 -44 7q-50 0 -83 -35t-33 -107q0 -24 9 -56zM432 297l-176 -176q20 -13 35 -17.5t37 -4.5q49 0 80.5 35t31.5 110q0 21 -8 53z" />
    <glyph glyph-name="ugrave" unicode="&#xf9;" horiz-adv-x="601" 
d="M581 477v-478h-190v77q-43 -48 -86 -68t-106 -20q-84 0 -131.5 45.5t-47.5 139.5v304h204v-263q0 -45 18.5 -64t51.5 -19q37 0 60.5 25.5t23.5 90.5v230h203zM291 577l-160 134h174l82 -134h-96z" />
    <glyph glyph-name="uacute" unicode="&#xfa;" horiz-adv-x="601" 
d="M581 477v-478h-190v77q-43 -48 -86 -68t-106 -20q-84 0 -131.5 45.5t-47.5 139.5v304h204v-263q0 -45 18.5 -64t51.5 -19q37 0 60.5 25.5t23.5 90.5v230h203zM213 577l84 134h174l-161 -134h-97z" />
    <glyph glyph-name="ucircumflex" unicode="&#xfb;" horiz-adv-x="601" 
d="M581 478v-478h-190v78q-43 -48 -86 -68t-106 -20q-84 0 -131.5 45t-47.5 139v304h204v-263q0 -45 18.5 -63.5t51.5 -18.5q37 0 60.5 25t23.5 91v229h203zM117 537l114 128h145l111 -128h-124l-61 68l-61 -68h-124z" />
    <glyph glyph-name="udieresis" unicode="&#xfc;" horiz-adv-x="601" 
d="M581 468v-478h-190v77q-43 -48 -86 -68t-106 -20q-84 0 -131.5 45.5t-47.5 139.5v304h204v-263q0 -45 18.5 -64t51.5 -19q37 0 60.5 25.5t23.5 90.5v230h203zM130 568v113h130v-113h-130zM342 568v113h131v-113h-131z" />
    <glyph glyph-name="yacute" unicode="&#xfd;" horiz-adv-x="667" 
d="M244 -20l-224 478h216l109 -318l101 318h201l-211 -511q-37 -88 -73 -119q-54 -43 -161 -43q-22 0 -56 3t-80 8l-16 128q22 -6 46.5 -9.5t51.5 -3.5q36 0 58 15t38 54zM242 568l84 134h174l-161 -134h-97z" />
    <glyph glyph-name="thorn" unicode="&#xfe;" horiz-adv-x="625" 
d="M226 -182h-206v841h206v-228q32 30 67 43.5t84 13.5q59 0 102 -21t71 -56.5t41.5 -81.5t13.5 -96q0 -119 -63.5 -181.5t-160.5 -62.5q-92 0 -155 57v-228zM224 237q0 -57 27 -84.5t67 -27.5q35 0 59.5 26.5t24.5 89.5q0 58 -25 85.5t-61 27.5q-39 0 -65.5 -28t-26.5 -89z
" />
    <glyph glyph-name="ydieresis" unicode="&#xff;" horiz-adv-x="667" 
d="M244 -11l-224 478h216l109 -318l101 318h201l-211 -511q-37 -88 -73 -119q-54 -43 -161 -43q-22 0 -56 3t-80 8l-16 128q22 -6 46.5 -9.5t51.5 -3.5q36 0 58 15t38 54zM159 577v113h130v-113h-130zM371 577v113h131v-113h-131z" />
  </font>
</defs>
</svg>
